# xmcd CD database file
#
# Track frame offsets:
#	150
#	20265
#	38531
#	63740
#	83693
#	102758
#	121884
#	144335
#	164370
#
# Disc length: 2390 seconds
#
# Revision: 0
# Processed by: cddbd v1.5.2PL0 Copyright (c) Steve Scherf et al.
# Submitted via: CdAid (MTCDDB.DLL V2003.12.21)
#
DISCID=67095409
DTITLE=The O'Jays - So Full Of Love
DYEAR=1978
DGENRE=Soul
TTITLE0=Sing My Heart Out
TTITLE1=Use Ta Be My Girl
TTITLE2=Cry Together
TTITLE3=This Time Baby
TTITLE4=Brandy (I Really Miss You)
TTITLE5=Take Me To The Stars
TTITLE6=Help (Somebody Please)
TTITLE7=Strokety Stroke
TTITLE8=The Big Gangster
EXTD=ID3G:  42 YEAR: 1978
EXTT0=
EXTT1=
EXTT2=
EXTT3=
EXTT4=
EXTT5=
EXTT6=
EXTT7=
EXTT8=
PLAYORDER=
